<svg width="135" height="48" viewBox="0 0 135 48" fill="none" xmlns="http://www.w3.org/2000/svg">
<path d="M23.8124 46.6737C36.4381 46.6737 46.6732 36.4386 46.6732 23.8129C46.6732 11.1873 36.4381 0.952148 23.8124 0.952148C11.1868 0.952148 0.95166 11.1873 0.95166 23.8129C0.95166 36.4386 11.1868 46.6737 23.8124 46.6737Z" fill="#171C2A"/>
<path d="M23.8133 47.6266C19.1035 47.6266 14.4994 46.23 10.5833 43.6133C6.66727 40.9967 3.61506 37.2776 1.81269 32.9262C0.0103179 28.5749 -0.461265 23.7869 0.457576 19.1676C1.37642 14.5482 3.64441 10.3051 6.97476 6.97476C10.3051 3.64441 14.5482 1.37642 19.1676 0.457576C23.7869 -0.461265 28.5749 0.0103179 32.9262 1.81269C37.2776 3.61506 40.9967 6.66727 43.6133 10.5833C46.23 14.4994 47.6266 19.1035 47.6266 23.8133C47.619 30.1267 45.1077 36.1793 40.6435 40.6435C36.1793 45.1077 30.1267 47.619 23.8133 47.6266ZM23.8133 1.90507C19.4803 1.90507 15.2445 3.18997 11.6417 5.59728C8.03895 8.00458 5.23092 11.4262 3.57274 15.4294C1.91456 19.4326 1.4807 23.8376 2.32603 28.0874C3.17137 32.3372 5.25792 36.2408 8.32184 39.3047C11.3858 42.3687 15.2894 44.4552 19.5392 45.3006C23.789 46.1459 28.194 45.712 32.1972 44.0539C36.2004 42.3957 39.622 39.5876 42.0293 35.9849C44.4366 32.3821 45.7215 28.1463 45.7215 23.8133C45.714 18.0052 43.4034 12.4371 39.2964 8.3302C35.1894 4.22324 29.6214 1.91263 23.8133 1.90507Z" fill="#00D991"/>
<path d="M18.1775 25.6L18.0395 25.7381C17.9689 25.8089 17.969 25.9235 18.0397 25.9941L20.1123 28.0638C20.183 28.1344 20.2976 28.1343 20.3682 28.0636L20.5062 27.9254C20.5768 27.8547 20.5767 27.7401 20.506 27.6695L18.4334 25.5998C18.3627 25.5292 18.2481 25.5292 18.1775 25.6Z" fill="white"/>
<path d="M18.2231 24.5367L18.085 24.6748C18.0143 24.7454 18.0143 24.86 18.085 24.9307L19.7958 26.6415C19.8665 26.7122 19.9811 26.7122 20.0517 26.6415L20.1898 26.5034C20.2605 26.4327 20.2605 26.3182 20.1898 26.2475L18.479 24.5367C18.4083 24.466 18.2938 24.466 18.2231 24.5367Z" fill="white"/>
<path d="M29.8826 25.6039L29.7446 25.7421C29.674 25.8128 29.674 25.9274 29.7448 25.998L31.8173 28.0677C31.8881 28.1383 32.0027 28.1382 32.0733 28.0675L32.2113 27.9293C32.2819 27.8586 32.2818 27.744 32.2111 27.6734L30.1385 25.6037C30.0678 25.5331 29.9532 25.5332 29.8826 25.6039Z" fill="white"/>
<path d="M29.9147 24.5369L29.7765 24.6749C29.7058 24.7455 29.7057 24.8601 29.7763 24.9308L31.4856 26.6431C31.5562 26.7138 31.6708 26.7139 31.7415 26.6433L31.8797 26.5054C31.9505 26.4348 31.9506 26.3202 31.88 26.2494L30.1707 24.5371C30.1 24.4664 29.9855 24.4663 29.9147 24.5369Z" fill="white"/>
<path fill-rule="evenodd" clip-rule="evenodd" d="M34.765 26.8863L34.2887 26.8863C34.1536 25.7587 33.6132 24.7187 32.7682 23.9599C31.9231 23.2012 30.8311 22.7754 29.6955 22.762C28.5599 22.7486 27.4582 23.1485 26.5955 23.8871C25.7328 24.6257 25.168 25.6527 25.0063 26.7768C24.7539 26.8339 23.768 26.8863 23.768 26.8863C23.768 26.8863 22.8155 26.8387 22.5821 26.7863C22.4215 25.6621 21.8577 24.6347 20.9958 23.8953C20.1339 23.1559 19.0326 22.7549 17.897 22.7672C16.7615 22.7794 15.6691 23.204 14.8233 23.9618C13.9776 24.7196 13.4361 25.7589 13.2997 26.8863L12.7663 26.8863C12.6703 26.8863 12.5782 26.9245 12.5103 26.9923C12.4424 27.0602 12.4043 27.1523 12.4043 27.2483L12.4043 27.6245C12.4055 27.7189 12.4436 27.809 12.5103 27.8758C12.577 27.9425 12.6671 27.9805 12.7615 27.9817L13.2759 27.9817C13.4097 29.1096 13.949 30.1503 14.7933 30.91C15.6376 31.6697 16.7292 32.0966 17.8649 32.1112C19.0005 32.1258 20.1028 31.727 20.9662 30.9892C21.8297 30.2514 22.3955 29.2248 22.5583 28.1008C22.8202 28.0484 23.7442 27.996 23.7442 27.996C23.7442 27.996 24.7253 28.0579 24.9825 28.1103C25.1224 29.2545 25.6796 30.3069 26.5472 31.0659C27.4148 31.8248 28.532 32.237 29.6847 32.2234C30.8373 32.2098 31.9444 31.7715 32.794 30.9923C33.6435 30.2132 34.1758 29.148 34.2887 28.0008L34.765 28.0008C34.8593 28.0008 34.95 27.964 35.0176 27.8982C35.0852 27.8323 35.1245 27.7427 35.1269 27.6484L35.1269 27.2531C35.1269 27.1571 35.0888 27.065 35.0209 26.9971C34.953 26.9292 34.861 26.8911 34.765 26.8911L34.765 26.8863ZM17.9242 31.0108C17.2187 31.0108 16.529 30.8016 15.9424 30.4096C15.3557 30.0176 14.8985 29.4605 14.6285 28.8087C14.3585 28.1569 14.2879 27.4396 14.4255 26.7476C14.5632 26.0557 14.9029 25.42 15.4018 24.9211C15.9007 24.4223 16.5363 24.0825 17.2283 23.9449C17.9203 23.8072 18.6375 23.8779 19.2893 24.1479C19.9412 24.4179 20.4983 24.8751 20.8903 25.4617C21.2822 26.0483 21.4914 26.738 21.4914 27.4436C21.4914 28.3896 21.1156 29.297 20.4466 29.966C19.7776 30.635 18.8703 31.0108 17.9242 31.0108ZM29.6165 31.0108C28.911 31.0108 28.2213 30.8016 27.6347 30.4096C27.0481 30.0176 26.5908 29.4605 26.3209 28.8087C26.0509 28.1569 25.9802 27.4396 26.1179 26.7476C26.2555 26.0557 26.5952 25.42 27.0941 24.9211C27.593 24.4223 28.2286 24.0825 28.9206 23.9449C29.6126 23.8072 30.3298 23.8779 30.9817 24.1479C31.6335 24.4179 32.1906 24.8751 32.5826 25.4617C32.9746 26.0483 33.1838 26.738 33.1838 27.4436C33.1838 28.3896 32.8079 29.297 32.139 29.966C31.47 30.635 30.5626 31.0108 29.6165 31.0108Z" fill="white"/>
<path d="M38.8494 25.5394L38.8494 17.2095L35.9203 17.2095C36.0916 16.2939 36.2014 15.3679 36.249 14.4377L34.5249 15.7188C35.4774 14.6186 34.5249 9.48926 34.5249 9.48926C34.5249 9.48926 33.2675 11.9563 25.4282 11.3276C17.5889 10.699 16.4887 13.8138 16.4887 13.8138C15.5362 12.8612 16.4887 11.3038 16.4887 11.3038C16.2047 11.4351 15.9493 11.621 15.7371 11.851C15.525 12.081 15.3602 12.3505 15.2523 12.6442C15.1444 12.9379 15.0954 13.25 15.1081 13.5626C15.1209 13.8753 15.1951 14.1823 15.3266 14.4662L15.3933 14.5948L12.8548 14.5948L14.6074 15.7188C14.0551 16.0853 13.6307 16.6146 13.393 17.2333L8.67794 17.2333L8.67794 25.5394L6.96338 27.254L8.67794 28.9685L9.1542 37.2984L13.6073 37.2984L13.131 28.4827C13.1357 28.4536 13.1345 28.4238 13.1274 28.3951C13.1202 28.3664 13.1074 28.3395 13.0896 28.3159C13.0718 28.2923 13.0494 28.2726 13.0238 28.2579C12.9982 28.2432 12.9699 28.2338 12.9405 28.2303C12.8825 28.2221 12.8236 28.2369 12.7764 28.2716C12.7292 28.3064 12.6975 28.3582 12.6881 28.4161C12.6833 28.438 12.6833 28.4608 12.6881 28.4827L12.6881 35.2457L10.6925 35.2457L10.6925 28.4161L9.52093 27.254L10.6878 26.0919L10.6878 19.2622L12.9072 19.2622C12.8548 19.7781 12.8452 20.2974 12.8786 20.8149L14.4455 20.8149C14.5327 19.8636 14.9871 18.9838 15.7124 18.3621C18.3795 15.0663 29.6717 16.9904 29.6717 16.9904L30.9243 15.1425L30.448 16.9904C33.1056 17.6239 33.3342 20.7577 33.3342 20.7577L34.5249 20.7577C34.8828 20.3083 35.1644 19.8031 35.3583 19.2622L36.8348 19.2622L36.8348 26.0919L38.0016 27.254L36.8348 28.4161L36.8348 35.2457L34.3963 35.2457L34.8726 37.2984L39.3256 37.2984L38.8494 28.9685L40.5639 27.254L38.8494 25.5394Z" fill="white"/>
<path d="M59.2338 18.8135V6.59529H61.817V16.6836H67.0551V18.8135H59.2338ZM70.8271 18.8135L67.331 6.59529H70.1529L72.1754 15.0848H72.2768L74.508 6.59529H76.9242L79.1495 15.1027H79.2569L81.2793 6.59529H84.1012L80.6052 18.8135H78.0876L75.7609 10.8251H75.6654L73.3447 18.8135H70.8271ZM91.9971 10.1092C91.9494 9.62797 91.7445 9.2541 91.3826 8.98762C91.0207 8.72115 90.5295 8.58791 89.909 8.58791C89.4874 8.58791 89.1315 8.64757 88.8411 8.76689C88.5508 8.88223 88.3281 9.04331 88.1729 9.25012C88.0218 9.45694 87.9462 9.6916 87.9462 9.9541C87.9383 10.1729 87.984 10.3638 88.0835 10.5268C88.1869 10.6899 88.3281 10.8311 88.507 10.9504C88.686 11.0657 88.8928 11.1672 89.1275 11.2547C89.3621 11.3382 89.6127 11.4098 89.8792 11.4694L90.9769 11.7319C91.5099 11.8513 91.9991 12.0104 92.4445 12.2092C92.89 12.4081 93.2758 12.6527 93.6019 12.943C93.9281 13.2334 94.1806 13.5754 94.3596 13.9692C94.5425 14.3629 94.636 14.8143 94.64 15.3234C94.636 16.0711 94.4451 16.7194 94.0673 17.2683C93.6934 17.8132 93.1525 18.2368 92.4445 18.539C91.7406 18.8373 90.8914 18.9865 89.8971 18.9865C88.9107 18.9865 88.0516 18.8354 87.3198 18.5331C86.592 18.2308 86.0232 17.7834 85.6136 17.1907C85.2079 16.5942 84.9951 15.8564 84.9752 14.9774H87.4749C87.5028 15.3871 87.6201 15.7291 87.8269 16.0035C88.0377 16.274 88.3181 16.4788 88.6681 16.618C89.0221 16.7532 89.4218 16.8209 89.8673 16.8209C90.3048 16.8209 90.6846 16.7572 91.0067 16.63C91.3329 16.5027 91.5854 16.3257 91.7644 16.099C91.9434 15.8723 92.0329 15.6118 92.0329 15.3175C92.0329 15.043 91.9513 14.8123 91.7883 14.6254C91.6292 14.4385 91.3945 14.2794 91.0843 14.1481C90.7781 14.0169 90.4022 13.8976 89.9567 13.7902L88.6263 13.4561C87.5962 13.2055 86.7829 12.8138 86.1863 12.2808C85.5897 11.7479 85.2934 11.03 85.2974 10.1271C85.2934 9.38734 85.4903 8.74103 85.888 8.18819C86.2897 7.63535 86.8406 7.20382 87.5406 6.89359C88.2406 6.58336 89.036 6.42825 89.9269 6.42825C90.8337 6.42825 91.6252 6.58336 92.3013 6.89359C92.9815 7.20382 93.5104 7.63535 93.8883 8.18819C94.2661 8.74103 94.461 9.38137 94.4729 10.1092H91.9971ZM61.3775 39.8135H58.5763L62.8445 27.4498H66.2131L70.4751 39.8135H67.674L64.5771 30.2751H64.4805L61.3775 39.8135ZM61.2024 34.9537H67.8189V36.9942H61.2024V34.9537ZM74.5772 27.4498V39.8135H71.9632V27.4498H74.5772ZM87.3695 31.0056C87.3212 30.5186 87.1139 30.1403 86.7477 29.8706C86.3815 29.601 85.8844 29.4662 85.2566 29.4662C84.83 29.4662 84.4698 29.5265 84.176 29.6473C83.8822 29.764 83.6568 29.927 83.4998 30.1363C83.3469 30.3456 83.2704 30.583 83.2704 30.8486C83.2624 31.07 83.3087 31.2632 83.4093 31.4282C83.5139 31.5932 83.6568 31.7361 83.8379 31.8568C84.019 31.9735 84.2283 32.0761 84.4657 32.1647C84.7032 32.2492 84.9567 32.3216 85.2264 32.382L86.3372 32.6476C86.8765 32.7684 87.3715 32.9294 87.8223 33.1306C88.273 33.3318 88.6634 33.5793 88.9934 33.8731C89.3234 34.1669 89.579 34.5131 89.7601 34.9115C89.9453 35.3099 90.0398 35.7667 90.0439 36.2819C90.0398 37.0385 89.8467 37.6945 89.4643 38.2499C89.086 38.8013 88.5386 39.2299 87.8223 39.5358C87.1099 39.8376 86.2507 39.9885 85.2445 39.9885C84.2464 39.9885 83.3771 39.8356 82.6365 39.5297C81.9 39.2239 81.3245 38.7711 80.91 38.1714C80.4995 37.5677 80.2842 36.8212 80.264 35.9317H82.7935C82.8217 36.3463 82.9404 36.6924 83.1497 36.9701C83.363 37.2438 83.6467 37.451 84.0009 37.5919C84.3591 37.7287 84.7636 37.7971 85.2143 37.7971C85.657 37.7971 86.0414 37.7327 86.3674 37.604C86.6974 37.4752 86.9529 37.2961 87.1341 37.0667C87.3152 36.8373 87.4057 36.5737 87.4057 36.2758C87.4057 35.9981 87.3232 35.7647 87.1582 35.5756C86.9972 35.3864 86.7598 35.2254 86.4458 35.0926C86.1359 34.9598 85.7556 34.839 85.3049 34.7304L83.9586 34.3923C82.9163 34.1388 82.0932 33.7423 81.4895 33.203C80.8858 32.6637 80.586 31.9373 80.59 31.0237C80.586 30.2751 80.7852 29.6211 81.1877 29.0617C81.5942 28.5023 82.1516 28.0656 82.8599 27.7517C83.5682 27.4378 84.3732 27.2808 85.2747 27.2808C86.1923 27.2808 86.9932 27.4378 87.6774 27.7517C88.3656 28.0656 88.9009 28.5023 89.2832 29.0617C89.6655 29.6211 89.8627 30.2691 89.8748 31.0056H87.3695ZM96.686 30.5407V32.4726H91.1018V30.5407H96.686ZM92.3696 28.3192H94.9413V36.964C94.9413 37.2015 94.9775 37.3866 95.05 37.5194C95.1224 37.6482 95.223 37.7388 95.3518 37.7911C95.4846 37.8434 95.6376 37.8696 95.8106 37.8696C95.9314 37.8696 96.0521 37.8595 96.1729 37.8394C96.2936 37.8153 96.3862 37.7971 96.4506 37.7851L96.855 39.6988C96.7262 39.739 96.5451 39.7853 96.3117 39.8376C96.0783 39.894 95.7945 39.9282 95.4605 39.9403C94.8407 39.9644 94.2974 39.8819 93.8305 39.6927C93.3677 39.5036 93.0075 39.2098 92.7499 38.8113C92.4923 38.4129 92.3656 37.9098 92.3696 37.3021V28.3192ZM104.308 35.8653V30.5407H106.879V39.8135H104.41V38.1292H104.314C104.104 38.6725 103.756 39.1092 103.269 39.4392C102.786 39.7692 102.197 39.9342 101.5 39.9342C100.881 39.9342 100.335 39.7934 99.8644 39.5116C99.3936 39.2299 99.0253 38.8295 98.7597 38.3103C98.4981 37.7911 98.3653 37.1693 98.3612 36.4449V30.5407H100.933V35.9861C100.937 36.5334 101.084 36.9661 101.374 37.284C101.663 37.6019 102.052 37.7609 102.539 37.7609C102.849 37.7609 103.138 37.6905 103.408 37.5496C103.678 37.4047 103.895 37.1914 104.06 36.9097C104.229 36.628 104.312 36.2799 104.308 35.8653ZM112.353 39.9644C111.649 39.9644 111.011 39.7833 110.44 39.4211C109.872 39.0548 109.421 38.5175 109.087 37.8092C108.757 37.0969 108.592 36.2235 108.592 35.1892C108.592 34.1267 108.763 33.2433 109.105 32.539C109.448 31.8306 109.902 31.3014 110.47 30.9513C111.041 30.5971 111.667 30.42 112.347 30.42C112.866 30.42 113.299 30.5086 113.645 30.6856C113.995 30.8587 114.277 31.076 114.49 31.3376C114.708 31.5952 114.873 31.8488 114.985 32.0983H115.064V27.4498H117.63V39.8135H115.094V38.3284H114.985C114.865 38.586 114.694 38.8415 114.472 39.0951C114.255 39.3446 113.971 39.5519 113.621 39.7169C113.275 39.8819 112.852 39.9644 112.353 39.9644ZM113.168 37.9179C113.583 37.9179 113.933 37.8052 114.219 37.5798C114.509 37.3504 114.73 37.0305 114.883 36.6199C115.04 36.2094 115.118 35.7285 115.118 35.1771C115.118 34.6257 115.042 34.1468 114.889 33.7403C114.736 33.3338 114.515 33.0199 114.225 32.7986C113.935 32.5772 113.583 32.4665 113.168 32.4665C112.746 32.4665 112.39 32.5812 112.1 32.8106C111.81 33.04 111.591 33.358 111.442 33.7645C111.293 34.171 111.218 34.6418 111.218 35.1771C111.218 35.7164 111.293 36.1933 111.442 36.6079C111.595 37.0184 111.814 37.3403 112.1 37.5738C112.39 37.8032 112.746 37.9179 113.168 37.9179ZM119.744 39.8135V30.5407H122.316V39.8135H119.744ZM121.036 29.3454C120.654 29.3454 120.326 29.2187 120.052 28.9651C119.782 28.7075 119.647 28.3997 119.647 28.0415C119.647 27.6873 119.782 27.3834 120.052 27.1299C120.326 26.8723 120.654 26.7435 121.036 26.7435C121.418 26.7435 121.744 26.8723 122.014 27.1299C122.288 27.3834 122.424 27.6873 122.424 28.0415C122.424 28.3997 122.288 28.7075 122.014 28.9651C121.744 29.2187 121.418 29.3454 121.036 29.3454ZM128.566 39.9946C127.628 39.9946 126.817 39.7954 126.133 39.3969C125.452 38.9945 124.927 38.435 124.557 37.7187C124.187 36.9983 124.002 36.1631 124.002 35.2133C124.002 34.2555 124.187 33.4184 124.557 32.702C124.927 31.9816 125.452 31.4221 126.133 31.0237C126.817 30.6212 127.628 30.42 128.566 30.42C129.503 30.42 130.312 30.6212 130.992 31.0237C131.677 31.4221 132.204 31.9816 132.574 32.702C132.944 33.4184 133.129 34.2555 133.129 35.2133C133.129 36.1631 132.944 36.9983 132.574 37.7187C132.204 38.435 131.677 38.9945 130.992 39.3969C130.312 39.7954 129.503 39.9946 128.566 39.9946ZM128.578 38.0024C129.004 38.0024 129.36 37.8817 129.646 37.6402C129.932 37.3947 130.147 37.0606 130.292 36.6381C130.441 36.2155 130.515 35.7345 130.515 35.1952C130.515 34.6559 130.441 34.175 130.292 33.7524C130.147 33.3298 129.932 32.9958 129.646 32.7503C129.36 32.5048 129.004 32.382 128.578 32.382C128.147 32.382 127.785 32.5048 127.491 32.7503C127.201 32.9958 126.982 33.3298 126.833 33.7524C126.688 34.175 126.616 34.6559 126.616 35.1952C126.616 35.7345 126.688 36.2155 126.833 36.6381C126.982 37.0606 127.201 37.3947 127.491 37.6402C127.785 37.8817 128.147 38.0024 128.578 38.0024Z" fill="white"/>
</svg>
